<?xml version="1.0" standalone="no"?>
<!DOCTYPE svg PUBLIC "-//W3C//DTD SVG 20010904//EN"
 "http://www.w3.org/TR/2001/REC-SVG-20010904/DTD/svg10.dtd">
<svg version="1.0" xmlns="http://www.w3.org/2000/svg"
 width="700.000000pt" height="700.000000pt" viewBox="0 0 700.000000 700.000000"
 preserveAspectRatio="xMidYMid meet">
<metadata>
Created by potrace 1.11, written by Peter Selinger 2001-2013
</metadata>
<g transform="translate(0.000000,700.000000) scale(0.100000,-0.100000)"
fill="#000000" stroke="none">
<path d="M3458 5470 c-108 -72 -230 -216 -277 -328 -12 -29 -25 -82 -30 -118
-11 -93 11 -152 99 -265 l20 -27 -44 -26 c-25 -14 -58 -42 -74 -61 l-29 -35
-69 16 c-201 46 -357 6 -471 -122 l-54 -61 -67 -2 c-130 -4 -313 -56 -391
-110 -53 -37 -83 -41 -162 -20 -75 20 -234 28 -299 15 -75 -15 -161 -65 -229
-133 -102 -102 -162 -221 -176 -349 -4 -33 -8 -61 -8 -64 -1 -3 2 -24 6 -47 9
-52 44 -87 102 -102 l42 -11 -10 -52 c-5 -29 -11 -54 -12 -56 -1 -1 -41 18
-88 43 -94 49 -225 104 -266 111 -14 3 -42 9 -61 14 -54 15 -195 12 -264 -6
-130 -34 -236 -106 -285 -196 -38 -69 -40 -166 -7 -266 28 -84 112 -226 181
-308 61 -72 63 -77 74 -144 11 -68 52 -164 100 -234 17 -25 31 -47 31 -50 0
-6 -36 -14 -185 -40 -100 -18 -90 -15 -200 -52 -122 -41 -214 -93 -279 -160
-91 -92 -96 -139 -23 -209 93 -88 319 -175 625 -240 78 -16 126 -25 157 -30
11 -1 47 -7 80 -14 33 -6 83 -13 110 -16 28 -3 57 -8 65 -10 8 -2 40 -7 70
-10 30 -3 73 -8 95 -11 22 -2 56 -7 75 -9 19 -3 60 -7 90 -10 30 -3 66 -8 80
-10 14 -3 63 -7 110 -10 47 -3 96 -8 110 -10 14 -2 59 -6 100 -10 41 -3 98 -8
125 -10 28 -2 104 -7 170 -10 66 -3 145 -8 175 -10 30 -2 93 -7 140 -10 47 -3
105 -7 130 -10 100 -9 176 -17 190 -20 8 -2 49 -6 90 -10 41 -3 82 -8 90 -10
16 -4 74 -10 230 -21 182 -14 635 -7 790 11 19 2 60 7 90 10 30 3 66 7 80 10
31 6 68 11 140 21 96 12 74 11 490 29 58 3 125 7 150 10 49 5 114 11 225 20
39 4 90 8 115 10 25 3 77 7 115 11 84 7 112 9 190 19 61 7 106 12 185 20 89
10 134 16 139 20 3 2 31 6 61 10 30 4 64 8 75 10 11 2 52 8 90 14 532 85 868
227 901 381 6 29 -16 75 -51 103 -79 63 -211 104 -515 160 -82 16 -100 20
-100 23 0 3 41 44 91 92 209 199 336 414 340 578 5 154 -75 238 -255 269 -61
10 -71 15 -69 31 2 10 6 53 9 94 5 69 3 79 -23 130 -42 82 -134 135 -288 165
-46 10 -262 13 -339 6 -42 -4 -73 -3 -82 4 -7 5 -25 43 -40 84 -66 185 -190
328 -331 381 -73 28 -90 31 -188 34 -55 2 -105 11 -161 30 -133 45 -231 39
-330 -19 l-46 -27 -27 21 c-58 48 -195 134 -253 161 -35 15 -116 44 -180 64
-65 20 -120 42 -124 48 -4 5 -8 31 -11 57 -16 183 -109 311 -274 377 -191 75
-333 23 -417 -154 l-35 -75 -29 34 c-117 141 -41 343 192 509 163 116 171 127
127 169 -39 36 -76 36 -129 1z m-344 -1133 c15 -19 26 -38 26 -44 0 -6 -33 -8
-84 -5 -78 4 -88 2 -148 -27 -35 -18 -93 -59 -129 -91 -35 -33 -65 -60 -66
-60 -1 0 9 20 23 44 56 99 168 188 264 207 72 14 88 11 114 -24z m2001 -167
c3 -6 -1 -7 -9 -4 -18 7 -21 14 -7 14 6 0 13 -4 16 -10z m42 -6 c-3 -3 -12 -4
-19 -1 -8 3 -5 6 6 6 11 1 17 -2 13 -5z m73 -19 c19 -7 28 -13 20 -13 -8 0
-31 6 -50 13 -19 7 -28 13 -20 13 8 0 31 -6 50 -13z m-119 -44 c48 -17 115
-47 150 -67 79 -44 201 -142 194 -154 -3 -5 -34 8 -68 28 -98 60 -175 92 -276
118 -101 26 -218 33 -263 15 -16 -6 -28 -9 -28 -6 0 2 -16 -3 -35 -11 -45 -18
-43 -19 -53 19 -6 17 -13 39 -16 48 -7 16 3 20 99 43 11 3 63 3 115 1 73 -3
115 -11 181 -34z m-2752 -151 c2 -40 -89 -140 -159 -175 -52 -26 -101 -26
-138 2 -43 32 -40 45 11 38 101 -14 182 63 252 240 7 16 10 11 21 -30 6 -27
13 -61 13 -75z m-545 -131 c29 -13 42 -38 23 -44 -198 -70 -307 -102 -296 -87
28 35 85 84 124 104 73 38 110 45 149 27z m2653 -50 c61 -20 62 -21 84 -77 18
-47 23 -78 23 -177 1 -66 -2 -136 -6 -155 -43 -213 -200 -393 -393 -449 -67
-20 -194 -24 -268 -8 -46 9 -70 10 -74 3 -4 -5 -1 -12 5 -14 18 -6 14 -30 -7
-41 -10 -6 -49 -15 -86 -21 -66 -10 -125 -33 -125 -48 0 -9 382 -7 437 2 24 4
44 7 45 7 3 -1 131 43 215 73 76 28 169 2 198 -54 30 -58 13 -119 -41 -145
-35 -16 -57 -15 -159 12 -176 45 -305 2 -368 -124 -35 -70 -65 -88 -143 -87
-59 1 -154 34 -154 54 0 5 -27 29 -60 53 -80 61 -155 88 -242 88 -73 0 -72 -1
-34 52 15 21 17 30 8 39 -10 10 -16 7 -29 -12 -27 -41 -104 -109 -173 -154
-36 -23 -72 -49 -81 -58 -8 -9 -35 -26 -59 -38 -74 -38 -220 -19 -233 31 -3
12 12 24 57 46 60 30 226 152 294 216 19 18 28 35 23 40 -5 5 -59 -28 -132
-82 -113 -83 -211 -141 -238 -141 -6 0 -11 10 -11 23 0 18 15 32 68 62 40 23
104 75 157 129 88 88 92 91 195 127 208 73 354 138 485 213 83 47 118 56 132
32 4 -7 29 -28 54 -45 117 -78 278 -37 364 92 53 80 75 156 82 287 3 63 7 120
8 125 1 6 5 27 10 48 9 44 52 92 86 95 13 1 52 -8 86 -19z m-1902 -36 c-22
-14 -55 -39 -74 -55 -39 -34 -49 -30 -31 12 19 45 56 70 104 70 l41 0 -40 -27z
m-646 -37 c11 -13 7 -18 -26 -32 -136 -58 -423 -134 -423 -111 0 26 24 41 111
68 55 17 143 48 197 69 98 39 113 40 141 6z m739 -13 c2 -17 -20 -35 -117 -96
-98 -61 -121 -72 -121 -57 0 12 29 40 78 76 42 32 91 68 107 80 35 27 49 26
53 -3z m-358 -10 c0 -41 -71 -101 -190 -160 -166 -82 -336 -143 -490 -178 -8
-2 -35 -9 -60 -15 -25 -6 -55 -14 -67 -17 -15 -3 -25 1 -33 16 -9 18 -8 22 12
30 13 5 39 11 58 14 147 23 430 147 735 323 30 18 35 16 35 -13z m-266 -50
c13 -7 0 -16 -56 -42 -40 -19 -80 -37 -88 -41 -45 -22 -401 -120 -435 -120 -3
0 -5 10 -5 23 0 21 10 25 115 50 65 16 168 50 233 79 164 71 190 77 236 51z
m1478 -4 l27 -14 -76 -45 c-101 -60 -216 -120 -221 -115 -2 2 5 23 16 47 54
121 162 175 254 127z m85 -61 c37 -41 45 -65 27 -82 -18 -19 -127 -83 -204
-121 -72 -35 -274 -115 -278 -110 -3 2 14 31 36 65 35 55 52 69 156 131 64 38
138 85 164 104 55 41 71 43 99 13z m-1314 -27 c-7 -20 -44 -61 -54 -61 -5 0
-25 -12 -46 -26 -34 -23 -143 -78 -233 -117 -56 -24 -278 -93 -364 -113 -76
-18 -79 -18 -92 1 -8 10 -12 20 -10 23 3 2 35 8 73 13 99 13 113 16 210 50
114 40 238 102 388 192 113 69 141 77 128 38z m367 11 c0 -35 -22 -56 -75 -71
-22 -7 -49 -16 -60 -21 -11 -5 -35 -13 -54 -19 -43 -14 -63 1 -30 22 48 30
204 116 212 117 4 0 7 -13 7 -28z m3678 -52 c-35 -31 -156 -87 -223 -104 -77
-20 -84 -13 -8 8 96 27 177 65 214 99 19 18 36 29 37 24 2 -4 -7 -16 -20 -27z
m-844 17 c10 -8 25 -31 33 -53 15 -42 30 -257 20 -296 -7 -25 -8 -26 -242
-113 l-70 -26 58 59 c35 35 55 62 48 66 -6 4 -44 -20 -86 -53 -41 -33 -108
-81 -148 -107 -84 -55 -257 -144 -279 -144 -8 0 -18 -3 -22 -7 -13 -14 -101
-43 -127 -43 -27 0 -42 19 -31 37 4 6 33 18 66 27 131 38 386 197 523 327 51
48 64 69 43 69 -6 0 -43 -26 -83 -58 -138 -112 -310 -209 -479 -273 -72 -27
-90 -30 -103 -19 -23 19 -19 26 28 40 71 21 280 135 352 193 6 4 32 24 59 44
75 58 169 150 158 157 -5 3 -48 -25 -95 -62 -211 -165 -496 -302 -627 -302
l-35 0 25 24 c16 15 42 26 70 30 25 3 55 8 67 10 53 11 163 77 280 168 36 29
83 55 115 64 70 21 107 44 203 127 86 74 132 102 192 116 55 13 67 13 87 -2z
m-734 -27 c34 -34 25 -62 -39 -123 -67 -64 -84 -71 -75 -29 25 109 54 172 80
172 8 0 23 -9 34 -20z m-2455 -65 c-9 -43 -25 -54 -225 -157 -135 -69 -226
-107 -330 -135 -117 -31 -155 -36 -180 -23 -29 15 -24 35 8 38 35 3 53 6 127
26 127 33 261 97 481 230 94 57 110 63 115 48 3 -9 5 -21 4 -27z m3309 19 c3
-8 2 -12 -4 -9 -6 3 -10 10 -10 16 0 14 7 11 14 -7z m-1936 -26 c11 -40 8 -50
-21 -64 -12 -6 -76 -39 -142 -72 -184 -93 -426 -184 -593 -223 -107 -25 -248
-35 -285 -20 -41 16 -27 26 40 29 51 2 101 9 192 27 168 33 408 135 651 279
69 41 130 74 137 75 7 1 16 -14 21 -31z m-1002 -14 c4 -14 3 -29 -2 -34 -9 -8
-190 -50 -218 -50 -18 0 -29 29 -17 44 6 6 24 13 41 14 18 1 62 13 98 26 88
30 91 30 98 0z m3704 23 c0 -2 -10 -12 -22 -23 l-23 -19 19 23 c18 21 26 27
26 19z m-763 -29 c-3 -8 -6 -5 -6 6 -1 11 2 17 5 13 3 -3 4 -12 1 -19z m-797
-34 c5 -13 7 -31 3 -39 -11 -31 -213 -151 -213 -127 1 32 20 58 64 86 28 18
67 51 86 73 38 43 46 44 60 7z m-2484 -49 c21 -50 19 -55 -18 -44 -18 6 -48
10 -66 11 -29 0 -31 2 -20 16 14 17 68 52 81 52 4 0 15 -16 23 -35z m1391 -36
c11 -26 10 -27 -85 -74 -219 -108 -477 -203 -627 -229 -16 -3 -41 -8 -55 -11
-52 -11 -200 -15 -200 -5 0 6 8 10 18 10 74 2 238 43 379 96 121 45 305 136
473 234 71 41 71 41 97 -21z m-977 -3 c10 -13 10 -16 -4 -16 -22 0 -28 -1 -54
-11 -12 -5 -33 -11 -45 -13 -12 -3 -33 -8 -47 -11 -14 -3 -38 -8 -55 -11 -16
-3 -31 -7 -34 -9 -8 -8 -41 16 -41 30 0 15 15 21 75 30 22 3 67 14 100 24 61
18 80 16 105 -13z m2149 10 c10 -12 -1 -23 -61 -64 -86 -57 -176 -106 -237
-127 -56 -19 -54 -20 -36 14 10 20 29 34 62 46 64 22 127 53 150 73 81 74 101
83 122 58z m-2766 -79 c-8 -39 -55 -82 -132 -121 -94 -48 -149 -64 -233 -71
-40 -3 -84 -8 -97 -11 -14 -3 -31 2 -42 12 -19 17 -26 36 -11 32 7 -2 92 10
122 17 8 2 25 6 36 9 34 7 161 63 264 115 52 27 96 48 97 47 1 0 -1 -14 -4
-29z m746 -20 l32 -14 -38 -11 c-69 -20 -165 -33 -222 -31 -94 4 -101 12 -21
25 41 7 100 19 130 27 72 19 82 20 119 4z m-459 -29 l27 -32 -47 -38 c-56 -44
-137 -82 -146 -67 -12 21 26 59 66 65 22 4 47 12 57 19 15 11 16 16 4 38 -12
23 -9 47 6 47 4 0 19 -14 33 -32z m4200 -52 c-14 -13 -27 -21 -30 -19 -4 4 40
42 50 43 2 0 -7 -11 -20 -24z m-4116 -35 c17 -18 15 -21 -46 -64 -82 -59 -188
-90 -188 -56 0 5 22 20 49 33 27 14 70 43 96 66 52 45 65 48 89 21z m4071 -1
c-3 -6 -21 -17 -38 -26 -36 -19 -31 -9 10 17 34 21 36 22 28 9z m-4491 -15
c10 -27 -16 -53 -90 -91 -76 -39 -175 -56 -210 -36 -17 9 -16 11 11 17 58 12
162 56 216 90 62 40 65 40 73 20z m4411 -35 c-3 -5 -12 -10 -18 -10 -7 0 -6 4
3 10 19 12 23 12 15 0z m-3905 -18 l23 -18 -64 -48 c-90 -68 -123 -80 -173
-63 l-39 13 54 31 c30 17 74 47 99 67 51 41 68 44 100 18z m4040 5 c0 -2 -12
-14 -27 -28 l-28 -24 24 28 c23 25 31 32 31 24z m-4493 -51 c-13 -33 -122 -81
-168 -74 -16 2 -13 7 18 23 21 11 60 34 88 52 49 32 74 32 62 -1z m4248 24
c-11 -5 -27 -9 -35 -9 -9 0 -8 4 5 9 11 5 27 9 35 9 9 0 8 -4 -5 -9z m-3687
-57 c-20 -24 -106 -83 -137 -94 -23 -8 -35 -7 -51 4 -20 14 -19 15 17 39 21
14 55 42 76 61 l38 36 34 -16 c27 -13 32 -19 23 -30z m3817 -3 c-3 -5 -12 -10
-18 -10 -7 0 -6 4 3 10 19 12 23 12 15 0z m-4344 -27 c8 -16 24 -39 37 -52 13
-13 21 -25 19 -28 -4 -4 -113 19 -155 33 -9 2 3 17 30 38 24 19 46 35 49 35 3
1 12 -11 20 -26z m628 -3 c17 -9 -87 -76 -143 -91 -51 -14 -55 -6 -16 27 18
15 37 33 44 39 43 42 71 49 115 25z m3681 16 c0 -2 -7 -7 -16 -10 -8 -3 -12
-2 -9 4 6 10 25 14 25 6z m-3545 -62 c-59 -55 -183 -124 -222 -124 -11 0 -25
6 -31 13 -8 10 0 20 36 42 26 16 70 48 97 71 54 44 65 49 135 52 l45 2 -60
-56z m3480 37 c-11 -5 -36 -11 -55 -14 -35 -6 -34 -6 5 8 43 14 84 19 50 6z
m-1755 -204 c0 -2 -10 -12 -22 -23 l-23 -19 19 23 c18 21 26 27 26 19z m-2148
-69 c2 -20 0 -34 -4 -32 -4 3 -8 24 -7 47 1 47 6 41 11 -15z m1512 -31 c-3 -8
0 -26 5 -40 6 -15 8 -27 6 -27 -10 0 -26 53 -21 67 3 7 8 13 10 13 3 0 3 -6 0
-13z m-764 -51 c0 -2 -8 -10 -17 -17 -16 -13 -17 -12 -4 4 13 16 21 21 21 13z
m-50 -51 c-7 -8 -16 -15 -21 -15 -5 0 -1 8 9 18 20 22 31 19 12 -3z m821 -13
c-10 -33 -51 -93 -51 -75 0 6 7 16 15 23 8 7 20 30 26 52 5 22 12 38 14 36 3
-2 1 -19 -4 -36z m-891 -46 c0 -2 -8 -10 -17 -17 -16 -13 -17 -12 -4 4 13 16
21 21 21 13z m658 -61 c-3 -3 -9 2 -12 12 -6 14 -5 15 5 6 7 -7 10 -15 7 -18z
m-733 5 c-3 -5 -12 -10 -18 -10 -7 0 -6 4 3 10 19 12 23 12 15 0z m753 -45
c-3 -3 -9 2 -12 12 -6 14 -5 15 5 6 7 -7 10 -15 7 -18z m21 -65 c0 -9 -4 -8
-9 5 -5 11 -9 27 -9 35 0 9 4 8 9 -5 5 -11 9 -27 9 -35z"/>
<path d="M3116 2689 c-57 -49 -130 -98 -188 -128 -16 -8 -28 -20 -28 -28 0
-18 3 -17 72 17 87 43 218 149 218 177 0 21 -12 15 -74 -38z"/>
</g>
</svg>
